<svg width="16" height="16" viewBox="0 0 16 16" fill="none" xmlns="http://www.w3.org/2000/svg">
<path fill-rule="evenodd" clip-rule="evenodd" d="M8 16C8.83333 16 10.2078 15.127 11.9013 13.5C13.2973 12.1588 14.6884 10.3053 14.7494 8.00616L14.9992 3.52774C15.0152 3.24115 14.7864 2.9985 14.5031 2.94567C12.7659 2.62173 9.97648 0.936792 8.92307 0.271046C8.64667 0.0963619 8.32736 0 8 0C7.67264 0 7.35333 0.0963625 7.07693 0.271048C6.02352 0.936797 3.23409 2.62174 1.49689 2.94568C1.21359 2.9985 0.984802 3.24115 1.00079 3.52775L1.25061 8.00616C1.31165 10.3053 2.70268 12.1588 4.09869 13.5C5.7922 15.127 7.16667 16 8 16Z" fill="url(#paint0_radial_83_6255)"/>
<path fill-rule="evenodd" clip-rule="evenodd" d="M11.3482 5.01136C11.7101 5.2957 11.773 5.81958 11.4886 6.18147L7.82196 10.8481C7.66983 11.0418 7.43986 11.1582 7.19375 11.1662C6.94764 11.1742 6.7106 11.0729 6.54622 10.8896L4.37955 8.47291C4.07232 8.13023 4.10106 7.60338 4.44374 7.29615C4.78642 6.98892 5.31327 7.01765 5.6205 7.36033L7.12462 9.03801L10.1781 5.15177C10.4624 4.78988 10.9863 4.72701 11.3482 5.01136Z" fill="white"/>
<defs>
<radialGradient id="paint0_radial_83_6255" cx="0" cy="0" r="1" gradientUnits="userSpaceOnUse" gradientTransform="translate(-0.499999 4) rotate(12.0948) scale(14.3178 21.0502)">
<stop offset="0.402276" stop-color="#ED5AD3"/>
<stop offset="0.968174" stop-color="#FC9179"/>
</radialGradient>
</defs>
</svg>
